<svg width="402" height="120" viewBox="0 0 402 120" fill="none" xmlns="http://www.w3.org/2000/svg">
<path d="M241.042 49.1201L266.184 49.1309L274.305 59.9053L262.225 109H233.486L244.682 63.4971H237.499L226.303 109H197.564L208.601 64.1582C208.686 63.8226 208.43 63.4972 208.084 63.4971H197.219C196.974 63.4971 196.76 63.6625 196.701 63.9023L185.606 109H156.869L168.064 63.4971H147L150.533 49.1309H171.598L176.196 30.4268C176.628 28.6683 177.992 27.0485 179.74 26.2119L209.47 12L200.501 48.459C200.416 48.7946 200.671 49.12 201.018 49.1201L211.889 49.1309C212.134 49.1308 212.347 48.9653 212.405 48.7256L216.908 30.4268C217.34 28.6683 218.704 27.0485 220.452 26.2119L250.182 12L241.042 49.1201ZM324.315 63.4863H306.815L295.62 108.989H267.947L280.027 59.8945L293.462 49.1201H327.859L324.315 63.4863ZM361.548 49.1201L350.427 94.2705H357.594L368.721 49.1201H397.427L386.215 94.6172H401.865L394.069 108.989H328.851L320.719 98.2139L332.815 49.1201H361.548Z" fill="#456063"/>
<rect y="0.67041" width="117.972" height="117.972" rx="58.9862" fill="#D33C43"/>
<path d="M27.0295 35.3718C27.2427 35.2097 28.7853 36.7282 31.6067 38.5486C34.2327 40.4079 37.9117 42.4835 42.5862 43.5808C45.9454 44.3698 49.2227 44.7962 52.3909 45.2078C58.5348 46.0062 63.8396 46.6956 67.554 49.739C70.0093 51.7513 70.4183 54.3755 70.7805 56.6921C71.1808 59.2509 71.5576 61.6674 74.6838 62.3894C74.9343 62.4473 75.1892 62.462 75.4495 62.4392C76.8421 62.3172 78.3756 61.126 80.1106 59.781C80.5646 59.4299 81.0307 59.069 81.5061 58.7175C83.5235 57.3891 85.7565 56.2457 88.1838 56.5349C92.7499 57.0788 92.7673 60.6082 92.9514 61.4158V61.4128C93.7191 62.016 95.401 63.0679 95.2805 63.3376C95.2191 63.4288 93.2331 63.3268 92.384 63.5437C82.4791 66.0717 85.9616 76.4444 77.7854 82.7644C70.9511 88.048 59.2691 88.3753 57.6614 87.657C57.1075 87.4094 59.3454 86.2406 58.8137 86.1414C52.3032 87.5488 53.7317 101.247 51.6038 102.785C50.9136 103.207 49.1708 102.464 48.1721 101.62C47.6798 101.059 47.6027 100.566 47.9358 100.113C48.3692 99.5259 50.2072 96.9497 50.2249 96.9236C50.2549 96.8827 50.2654 96.8309 50.2581 96.781C50.2506 96.731 50.2219 96.6871 50.1809 96.657C50.0959 96.5957 49.9769 96.6152 49.9153 96.7L47.1926 100.496C47.1912 100.498 47.1884 100.501 47.1858 100.504C46.3139 100.34 44.4377 98.8249 44.3147 97.0505C44.3463 97.0432 44.3776 97.0314 44.4065 97.0105L47.8547 94.3962C47.9554 94.3199 47.975 94.1747 47.8987 94.074C47.8225 93.9735 47.678 93.9542 47.5774 94.03L44.1292 96.6453C44.0933 96.6729 44.0669 96.7102 44.052 96.7498C43.0488 96.4845 41.8014 94.9822 41.8831 93.7957C41.8919 93.795 41.8996 93.7973 41.9084 93.7966C41.9389 93.794 41.971 93.7847 42.0002 93.7683L45.7844 91.6736C45.8955 91.6118 45.9358 91.4732 45.8743 91.3621C45.8124 91.251 45.6739 91.2106 45.5627 91.2722L41.7776 93.3679C41.7484 93.3827 41.7255 93.4039 41.7063 93.4285C41.0379 93.134 40.0301 91.7622 40.217 90.7781C40.2309 90.7799 40.2435 90.7822 40.2571 90.781C40.2813 90.7789 40.3069 90.7737 40.3303 90.7625L44.4797 88.9128C44.5948 88.8614 44.6473 88.7252 44.5959 88.6101C44.5445 88.495 44.4083 88.4424 44.2932 88.4939L40.1428 90.3435C40.1107 90.3586 40.0838 90.3807 40.0618 90.407C39.113 89.8718 38.0895 87.9551 38.6252 86.698C38.6265 86.6979 38.6284 86.6981 38.6292 86.698C38.6322 86.6977 38.6389 86.697 38.6389 86.697L43.4719 85.696C43.5743 85.6747 43.6407 85.5734 43.6194 85.4695C43.6089 85.4198 43.5783 85.3768 43.5344 85.3484C43.4922 85.3215 43.4425 85.3115 43.3928 85.322C43.3468 85.3317 39.596 86.1188 39.4358 86.1482C38.7669 86.2696 38.4664 86.2395 38.1292 85.7859C37.5073 84.7267 36.9819 82.7663 37.4661 82.322C39.3573 80.5155 48.4318 84.6445 52.6301 81.7527C55.3311 79.892 57.9448 76.185 61.7317 74.1833C53.7458 72.9141 47.5726 71.9047 45.7678 66.3367C41.3927 66.5753 39.5253 62.8872 39.3254 61.5671C35.1457 61.0555 34.712 57.4049 34.9124 56.0496C32.5063 55.9836 30.2145 52.595 30.8909 49.5281C29.5208 49.2782 27.9085 46.1028 28.6067 43.6873C25.9005 41.8394 26.253 35.7879 27.0295 35.3718ZM49.1887 66.8689C49.0219 66.8375 48.8625 66.9448 48.8293 67.1101C48.7978 67.2753 48.9053 67.4362 49.0706 67.4695L63.0852 70.2166C63.1148 70.2216 63.1447 70.2238 63.1721 70.2214C63.3044 70.2097 63.4183 70.1115 63.4446 69.9744C63.4759 69.8092 63.3687 69.6481 63.2034 69.615L49.1887 66.8689ZM59.5627 50.5134C59.1024 50.4233 58.6411 50.5548 58.2961 50.8718C57.9513 51.1888 57.7813 51.6378 57.8313 52.1042C57.9303 53.0234 58.6066 53.7661 59.511 53.9539L60.6213 54.1853C60.5621 54.2257 60.5034 54.2709 60.4495 54.3201C60.1045 54.6371 59.9346 55.086 59.9846 55.5525C60.0835 56.4716 60.7591 57.2142 61.6633 57.4021L62.7639 57.6316C62.7003 57.6739 62.638 57.7188 62.5813 57.7712C62.2364 58.0882 62.0666 58.5373 62.1165 59.0037C62.2153 59.9229 62.8908 60.6663 63.7952 60.8542L64.9065 61.0857C64.8472 61.1261 64.7875 61.1698 64.7336 61.2205C64.389 61.5375 64.2198 61.9866 64.2698 62.4529C64.3688 63.372 65.0442 64.1147 65.9485 64.3025L67.0637 64.5349C66.9972 64.579 66.9338 64.6262 66.8743 64.6804C66.5294 64.9974 66.3604 65.4464 66.4104 65.9128C66.5093 66.8321 67.1846 67.5757 68.0891 67.7634L72.5247 68.6833C72.5463 68.6875 72.569 68.6881 72.5901 68.6863C72.689 68.6776 72.7734 68.6062 72.7952 68.5046L72.8059 68.5027C72.8318 68.3778 72.7524 68.2574 72.6292 68.2312L68.1936 67.3103C67.4829 67.1624 66.9547 66.5801 66.8762 65.8601C66.842 65.5395 66.9584 65.2315 67.1956 65.0144C67.4312 64.7976 67.7486 64.7079 68.0637 64.7693L70.4045 65.2263C70.5289 65.2488 70.6486 65.1691 70.6731 65.0447C70.6943 64.9371 70.6348 64.8303 70.5364 64.7898C70.5204 64.782 70.5027 64.7753 70.4856 64.7722L66.05 63.8523C65.3393 63.7043 64.812 63.1212 64.7336 62.4011C64.6995 62.0805 64.8164 61.7724 65.052 61.5554C65.2876 61.3386 65.6051 61.2499 65.9202 61.3113L67.3245 61.5837L68.2385 61.7742C68.2603 61.7784 68.2837 61.779 68.3049 61.7771C68.32 61.7757 68.335 61.7697 68.3499 61.7654C68.3511 61.7653 68.3525 61.7655 68.3538 61.7654C68.3628 61.7631 68.3708 61.7623 68.3782 61.7585C68.4526 61.7336 68.5127 61.6702 68.5286 61.5876C68.5529 61.4628 68.4718 61.3425 68.3469 61.3181L67.4075 61.1345L63.8948 60.405C63.184 60.2571 62.6559 59.6749 62.5774 58.9548C62.5432 58.6342 62.6586 58.3262 62.8958 58.1091C63.1313 57.8922 63.4488 57.8027 63.7639 57.864L65.804 58.2615L66.1018 58.323C66.1236 58.3272 66.1469 58.3278 66.1682 58.3259C66.2473 58.319 66.3167 58.27 66.3518 58.198C66.3597 58.1835 66.3646 58.1678 66.3694 58.1521C66.3706 58.1491 66.3733 58.1471 66.3733 58.1443V58.1404C66.3732 58.139 66.3723 58.1375 66.3723 58.1375C66.3965 58.0127 66.3154 57.8923 66.1907 57.8679L65.887 57.8093L61.7581 56.9529C61.0472 56.8049 60.5191 56.2219 60.4407 55.5017C60.4065 55.1811 60.5219 54.8731 60.759 54.656C60.9946 54.4391 61.3121 54.3506 61.6272 54.4119L63.0364 54.6853L63.9456 54.8748C63.9674 54.879 63.9907 54.8795 64.012 54.8777C64.0271 54.8764 64.042 54.8703 64.0569 54.866C64.0583 54.8658 64.0611 54.8661 64.0627 54.866C64.0701 54.8638 64.078 54.8627 64.0852 54.8591C64.1596 54.8342 64.2209 54.7723 64.2366 54.6882C64.2609 54.5635 64.1796 54.4432 64.0549 54.4187L63.1213 54.2361L59.6038 53.5056C58.8944 53.3575 58.3657 52.7746 58.2874 52.0544C58.2533 51.7339 58.3696 51.4267 58.6067 51.2097C58.8423 50.9928 59.1596 50.9032 59.4749 50.9646L61.8157 51.4207C61.9403 51.4433 62.0599 51.3637 62.0842 51.239C62.1084 51.1144 62.0282 50.994 61.9036 50.9695L59.5627 50.5134ZM44.4983 61.6648C44.3343 61.6302 44.1716 61.7366 44.137 61.9021C44.1024 62.0677 44.2087 62.2288 44.3743 62.2634L60.886 65.6931C60.917 65.698 60.9461 65.7005 60.9749 65.698C61.1057 65.6866 61.2192 65.5925 61.2473 65.4568C61.2819 65.2912 61.1756 65.1301 61.01 65.0955L44.4983 61.6648ZM34.6321 17.3269C35.211 17.3901 35.2754 19.2943 40.3333 24.1335C47.9534 31.4261 66.54 36.1818 71.6213 43.3835C75.5466 48.9455 72.7725 56.9903 77.0784 61.2029C76.2406 61.6903 75.4838 61.9484 74.8215 61.7947C72.096 61.165 71.7811 59.1497 71.3831 56.5984C71.0053 54.1742 70.5761 51.4265 67.9407 49.2673C64.0924 46.113 58.7059 45.4116 52.469 44.6013C49.3164 44.1915 46.0552 43.7684 42.7258 42.9861C41.5356 42.7067 40.4114 42.3614 39.3528 41.9724C37.6694 40.3849 37.3561 37.4694 38.134 36.3337C36.8668 35.7866 34.2918 32.7952 35.6038 30.6296C34.419 30.1839 33.3935 26.7347 34.4338 24.8982C33.0128 23.3089 33.8289 17.9294 34.6321 17.3269ZM40.2561 56.7908C40.0905 56.7562 39.9288 56.8636 39.8958 57.0291C39.8627 57.1945 39.9695 57.3554 40.135 57.3884H40.1331L58.9553 61.199C58.9848 61.204 59.0144 61.2063 59.0432 61.2039C59.1756 61.1923 59.2887 61.0966 59.3167 60.9607C59.3497 60.7953 59.2438 60.6344 59.0784 60.6013L40.2561 56.7908ZM36.4768 51.7693C36.3114 51.7364 36.1505 51.8441 36.1174 52.0095C36.0844 52.1749 36.1923 52.3358 36.3577 52.3689L56.092 56.3113C56.1201 56.3165 56.15 56.3187 56.179 56.3162C56.3113 56.3045 56.4234 56.2068 56.4514 56.071C56.4843 55.9058 56.3773 55.7449 56.2122 55.7117L36.4768 51.7693ZM32.4514 46.2947C32.2859 46.2603 32.1256 46.3665 32.0911 46.532C32.0567 46.6973 32.1621 46.8576 32.3274 46.8923L32.3264 46.8943L53.5833 51.2869C53.6144 51.2918 53.6442 51.2933 53.6731 51.2908C53.8054 51.2791 53.9186 51.1834 53.9465 51.0476C53.9809 50.8822 53.8746 50.7209 53.7092 50.6863L32.4514 46.2947ZM39.0344 28.6082C38.8877 28.5262 38.7006 28.5797 38.6184 28.7263V28.7244C38.5361 28.8711 38.5898 29.0581 38.7366 29.1404L64.6292 43.6404C64.6841 43.6724 64.7456 43.6837 64.8049 43.6785C64.9023 43.6699 64.9944 43.6161 65.0461 43.5242C65.1282 43.3774 65.0747 43.1904 64.928 43.1082L39.0344 28.6082ZM40.345 33.0681C40.1968 32.9876 40.0115 33.042 39.9309 33.1902C39.8506 33.3383 39.905 33.5237 40.053 33.6042L58.0774 43.4011C58.132 43.43 58.1915 43.4413 58.2493 43.4363C58.3482 43.4276 58.4413 43.3704 58.4915 43.2771V43.2791C58.5721 43.1309 58.5176 42.9446 58.3694 42.864L40.345 33.0681ZM41.3098 37.2556C41.1631 37.1734 40.9761 37.2261 40.8938 37.3728C40.8116 37.5194 40.8645 37.7064 41.011 37.7888L49.8352 42.7273C49.89 42.7592 49.9508 42.7715 50.01 42.7664C50.1074 42.7578 50.1994 42.7019 50.2512 42.6101C50.3334 42.4635 50.2805 42.2765 50.134 42.1941L41.3098 37.2556Z" fill="#F9FBFB"/>
</svg>
