<svg width="400" height="152" viewBox="0 0 400 152" fill="none" xmlns="http://www.w3.org/2000/svg">
<path d="M147.365 58.168L186.762 58.1846L199.488 75.0684L180.558 152H135.524L153.068 80.6973H141.812L124.269 152H79.2354L96.5293 81.7324C96.6629 81.2064 96.2615 80.6973 95.7188 80.6973H78.6924C78.3086 80.6975 77.9747 80.9556 77.8828 81.3311L60.498 152H15.4648L33.0088 80.6973H0L5.53613 58.1846H38.5449L45.751 28.875C46.4273 26.1194 48.5648 23.5805 51.3037 22.2695L97.8906 0L83.8369 57.1318C83.7033 57.6579 84.1038 58.1679 84.6465 58.168L101.682 58.1846C102.066 58.1844 102.399 57.9254 102.491 57.5498L109.547 28.875C110.223 26.1195 112.361 23.5806 115.1 22.2695L161.687 0L147.365 58.168ZM277.855 80.6797H250.433L232.889 151.983H189.526L208.456 75.0518L229.507 58.168H283.408L277.855 80.6797ZM336.199 58.168L318.772 128.92H330.003L347.438 58.168H392.422L374.853 129.462H399.377L387.161 151.983H284.962L272.219 135.099L291.175 58.168H336.199Z" fill="#D33C43"/>
</svg>
