<svg width="400" height="120" viewBox="0 0 400 120" fill="none" xmlns="http://www.w3.org/2000/svg">
<rect y="0.67041" width="117.972" height="117.972" rx="58.9862" fill="#D33C43"/>
<path d="M27.0286 35.3721C27.2418 35.2099 28.7843 36.7285 31.6057 38.5488C34.2317 40.4082 37.9107 42.4838 42.5852 43.5811C45.9444 44.3701 49.2217 44.7965 52.3899 45.208C58.5338 46.0065 63.8386 46.6959 67.553 49.7393C70.0083 51.7516 70.4173 54.3758 70.7795 56.6924C71.1798 59.2511 71.5567 61.6677 74.6829 62.3896C74.9333 62.4475 75.1882 62.4622 75.4485 62.4395C76.8411 62.3174 78.3747 61.1262 80.1096 59.7812C80.5636 59.4302 81.0297 59.0692 81.5051 58.7178C83.5225 57.3894 85.7556 56.2459 88.1829 56.5352C92.7489 57.0791 92.7663 60.6085 92.9504 61.416V61.4131C93.7181 62.0162 95.4 63.0681 95.2795 63.3379C95.2181 63.4291 93.2322 63.327 92.3831 63.5439C82.4781 66.0719 85.9606 76.4446 77.7844 82.7646C70.9502 88.0483 59.2681 88.3755 57.6604 87.6572C57.1065 87.4097 59.3445 86.2408 58.8127 86.1416C52.3022 87.5491 53.7307 101.248 51.6028 102.785C50.9126 103.207 49.1698 102.464 48.1711 101.62C47.6788 101.059 47.6017 100.566 47.9348 100.113C48.3682 99.5262 50.2062 96.9499 50.2239 96.9238C50.254 96.8829 50.2645 96.8311 50.2571 96.7812C50.2496 96.7313 50.2209 96.6874 50.1799 96.6572C50.0949 96.596 49.9759 96.6155 49.9143 96.7002L47.1917 100.496C47.1902 100.498 47.1874 100.501 47.1848 100.504C46.313 100.341 44.4368 98.8252 44.3137 97.0508C44.3453 97.0434 44.3767 97.0317 44.4055 97.0107L47.8538 94.3965C47.9544 94.3202 47.974 94.1749 47.8977 94.0742C47.8215 93.9738 47.6771 93.9544 47.5764 94.0303L44.1282 96.6455C44.0923 96.6732 44.066 96.7104 44.051 96.75C43.0478 96.4848 41.8004 94.9824 41.8821 93.7959C41.8909 93.7952 41.8986 93.7976 41.9075 93.7969C41.9379 93.7942 41.97 93.7849 41.9993 93.7686L45.7834 91.6738C45.8945 91.612 45.9349 91.4734 45.8733 91.3623C45.8115 91.2512 45.6729 91.2108 45.5618 91.2725L41.7766 93.3682C41.7475 93.3829 41.7245 93.4042 41.7053 93.4287C41.0369 93.1342 40.0292 91.7624 40.2161 90.7783C40.2299 90.7802 40.2425 90.7824 40.2561 90.7812C40.2804 90.7791 40.3059 90.7739 40.3293 90.7627L44.4788 88.9131C44.5938 88.8616 44.6464 88.7255 44.595 88.6104C44.5435 88.4952 44.4074 88.4427 44.2922 88.4941L40.1418 90.3438C40.1097 90.3588 40.0829 90.381 40.0608 90.4072C39.1121 89.8721 38.0885 87.9553 38.6243 86.6982C38.6255 86.6981 38.6274 86.6983 38.6282 86.6982C38.6312 86.698 38.6379 86.6973 38.6379 86.6973L43.4709 85.6963C43.5733 85.675 43.6398 85.5736 43.6184 85.4697C43.6079 85.42 43.5773 85.377 43.5334 85.3486C43.4912 85.3217 43.4415 85.3118 43.3918 85.3223C43.3458 85.3319 39.5951 86.119 39.4348 86.1484C38.7659 86.2698 38.4654 86.2398 38.1282 85.7861C37.5063 84.7269 36.9809 82.7665 37.4651 82.3223C39.3563 80.5157 48.4308 84.6447 52.6292 81.7529C55.3301 79.8923 57.9439 76.1853 61.7307 74.1836C53.7448 72.9143 47.5716 71.9049 45.7668 66.3369C41.3917 66.5755 39.5244 62.8875 39.3245 61.5674C35.1447 61.0558 34.711 57.4051 34.9114 56.0498C32.5053 55.9839 30.2136 52.5952 30.8899 49.5283C29.5198 49.2784 27.9075 46.103 28.6057 43.6875C25.8995 41.8396 26.252 35.7882 27.0286 35.3721ZM49.1877 66.8691C49.0209 66.8377 48.8615 66.945 48.8284 67.1104C48.7968 67.2756 48.9043 67.4365 49.0696 67.4697L63.0842 70.2168C63.1138 70.2219 63.1437 70.2241 63.1711 70.2217C63.3034 70.21 63.4173 70.1118 63.4436 69.9746C63.475 69.8094 63.3677 69.6484 63.2024 69.6152L49.1877 66.8691ZM59.5618 50.5137C59.1014 50.4236 58.6402 50.5551 58.2952 50.8721C57.9503 51.1891 57.7803 51.6381 57.8303 52.1045C57.9293 53.0236 58.6056 53.7664 59.51 53.9541L60.6204 54.1855C60.5611 54.226 60.5024 54.2712 60.4485 54.3203C60.1035 54.6373 59.9336 55.0862 59.9836 55.5527C60.0826 56.4718 60.7581 57.2145 61.6624 57.4023L62.7629 57.6318C62.6993 57.6742 62.637 57.7191 62.5803 57.7715C62.2354 58.0884 62.0656 58.5375 62.1155 59.0039C62.2143 59.9231 62.8899 60.6666 63.7942 60.8545L64.9055 61.0859C64.8462 61.1264 64.7865 61.17 64.7327 61.2207C64.388 61.5377 64.2188 61.9868 64.2688 62.4531C64.3678 63.3722 65.0432 64.1149 65.9475 64.3027L67.0627 64.5352C66.9962 64.5793 66.9329 64.6265 66.8733 64.6807C66.5284 64.9977 66.3594 65.4466 66.4094 65.9131C66.5083 66.8324 67.1836 67.5759 68.0881 67.7637L72.5237 68.6836C72.5453 68.6877 72.568 68.6883 72.5891 68.6865C72.6881 68.6779 72.7724 68.6065 72.7942 68.5049L72.8049 68.5029C72.8308 68.3781 72.7514 68.2576 72.6282 68.2314L68.1926 67.3105C67.4819 67.1626 66.9537 66.5804 66.8752 65.8604C66.8411 65.5397 66.9574 65.2317 67.1946 65.0146C67.4302 64.7978 67.7476 64.7082 68.0627 64.7695L70.4036 65.2266C70.5279 65.249 70.6476 65.1693 70.6721 65.0449C70.6934 64.9373 70.6338 64.8306 70.5354 64.79C70.5194 64.7822 70.5018 64.7756 70.4846 64.7725L66.0491 63.8525C65.3384 63.7045 64.811 63.1215 64.7327 62.4014C64.6985 62.0807 64.8154 61.7726 65.051 61.5557C65.2866 61.3389 65.6041 61.2502 65.9192 61.3115L67.3235 61.584L68.2375 61.7744C68.2593 61.7786 68.2827 61.7792 68.304 61.7773C68.3191 61.776 68.334 61.77 68.3489 61.7656C68.3502 61.7655 68.3515 61.7657 68.3528 61.7656C68.3618 61.7633 68.3699 61.7625 68.3772 61.7588C68.4516 61.7339 68.5118 61.6705 68.5276 61.5879C68.5519 61.4631 68.4708 61.3427 68.3459 61.3184L67.4065 61.1348L63.8938 60.4053C63.183 60.2573 62.6549 59.6751 62.5764 58.9551C62.5422 58.6345 62.6577 58.3265 62.8948 58.1094C63.1303 57.8925 63.4478 57.803 63.7629 57.8643L65.803 58.2617L66.1008 58.3232C66.1227 58.3275 66.1459 58.328 66.1672 58.3262C66.2464 58.3192 66.3157 58.2703 66.3508 58.1982C66.3587 58.1838 66.3637 58.168 66.3684 58.1523C66.3696 58.1493 66.3723 58.1473 66.3723 58.1445V58.1406C66.3722 58.1393 66.3713 58.1377 66.3713 58.1377C66.3955 58.013 66.3144 57.8925 66.1897 57.8682L65.886 57.8096L61.7571 56.9531C61.0463 56.8052 60.5181 56.2221 60.4397 55.502C60.4055 55.1813 60.5209 54.8733 60.7581 54.6562C60.9936 54.4394 61.3111 54.3508 61.6262 54.4121L63.0354 54.6855L63.9446 54.875C63.9664 54.8792 63.9897 54.8798 64.011 54.8779C64.0262 54.8766 64.041 54.8706 64.0559 54.8662C64.0573 54.8661 64.0602 54.8664 64.0618 54.8662C64.0691 54.8641 64.077 54.8629 64.0842 54.8594C64.1587 54.8345 64.2199 54.7725 64.2356 54.6885C64.2599 54.5637 64.1786 54.4434 64.054 54.4189L63.1204 54.2363L59.6028 53.5059C58.8935 53.3578 58.3647 52.7749 58.2864 52.0547C58.2523 51.7341 58.3686 51.427 58.6057 51.21C58.8414 50.993 59.1587 50.9035 59.4739 50.9648L61.8147 51.4209C61.9393 51.4435 62.0589 51.364 62.0833 51.2393C62.1075 51.1146 62.0272 50.9942 61.9026 50.9697L59.5618 50.5137ZM44.4973 61.665C44.3333 61.6304 44.1706 61.7369 44.136 61.9023C44.1014 62.0679 44.2077 62.229 44.3733 62.2637L60.885 65.6934C60.916 65.6983 60.9451 65.7007 60.9739 65.6982C61.1047 65.6868 61.2182 65.5928 61.2463 65.457C61.2809 65.2915 61.1746 65.1303 61.009 65.0957L44.4973 61.665ZM34.6311 17.3271C35.2101 17.3904 35.2745 19.2946 40.3323 24.1338C47.9525 31.4264 66.539 36.182 71.6204 43.3838C75.5457 48.9457 72.7715 56.9906 77.0774 61.2031C76.2396 61.6905 75.4828 61.9486 74.8206 61.7949C72.095 61.1652 71.7801 59.1499 71.3821 56.5986C71.0043 54.1744 70.5751 51.4268 67.9397 49.2676C64.0914 46.1132 58.705 45.4118 52.468 44.6016C49.3155 44.1918 46.0542 43.7687 42.7249 42.9863C41.5347 42.707 40.4105 42.3617 39.3518 41.9727C37.6685 40.3851 37.3551 37.4696 38.1331 36.334C36.8658 35.7868 34.2908 32.7955 35.6028 30.6299C34.4181 30.1842 33.3926 26.7349 34.4329 24.8984C33.0118 23.3092 33.828 17.9296 34.6311 17.3271ZM40.2551 56.791C40.0895 56.7564 39.9278 56.8638 39.8948 57.0293C39.8617 57.1948 39.9686 57.3556 40.134 57.3887H40.1321L58.9543 61.1992C58.9838 61.2043 59.0134 61.2066 59.0422 61.2041C59.1747 61.1925 59.2877 61.0968 59.3157 60.9609C59.3487 60.7955 59.2428 60.6347 59.0774 60.6016L40.2551 56.791ZM36.4758 51.7695C36.3105 51.7367 36.1495 51.8444 36.1165 52.0098C36.0834 52.1752 36.1913 52.336 36.3567 52.3691L56.0911 56.3115C56.1191 56.3167 56.1491 56.3189 56.178 56.3164C56.3103 56.3047 56.4225 56.2071 56.4504 56.0713C56.4833 55.906 56.3763 55.7451 56.2112 55.7119L36.4758 51.7695ZM32.4504 46.2949C32.2849 46.2605 32.1247 46.3667 32.0901 46.5322C32.0557 46.6976 32.1612 46.8578 32.3264 46.8926L32.3254 46.8945L53.5823 51.2871C53.6134 51.2921 53.6432 51.2935 53.6721 51.291C53.8045 51.2793 53.9176 51.1837 53.9456 51.0479C53.9799 50.8824 53.8737 50.7212 53.7083 50.6865L32.4504 46.2949ZM39.0334 28.6084C38.8867 28.5265 38.6996 28.5799 38.6174 28.7266V28.7246C38.5352 28.8714 38.5888 29.0584 38.7356 29.1406L64.6282 43.6406C64.6831 43.6726 64.7446 43.6839 64.804 43.6787C64.9013 43.6701 64.9934 43.6163 65.0452 43.5244C65.1272 43.3777 65.0737 43.1906 64.927 43.1084L39.0334 28.6084ZM40.344 33.0684C40.1958 32.9878 40.0105 33.0423 39.9299 33.1904C39.8496 33.3385 39.904 33.5239 40.052 33.6045L58.0764 43.4014C58.1311 43.4303 58.1905 43.4416 58.2483 43.4365C58.3472 43.4278 58.4404 43.3707 58.4905 43.2773V43.2793C58.5711 43.1311 58.5166 42.9449 58.3684 42.8643L40.344 33.0684ZM41.3088 37.2559C41.1621 37.1736 40.9751 37.2263 40.8928 37.373C40.8106 37.5197 40.8635 37.7067 41.01 37.7891L49.8342 42.7275C49.889 42.7595 49.9498 42.7717 50.009 42.7666C50.1064 42.7581 50.1984 42.7022 50.2502 42.6104C50.3324 42.4637 50.2795 42.2767 50.1331 42.1943L41.3088 37.2559Z" fill="#F9FBFB"/>
<path d="M240.671 49.4399H265.593V49.4517L273.639 60.1323L261.664 108.788H233.184L244.279 63.6929H237.158L226.062 108.788H197.582L208.681 63.6929H196.822L185.727 108.788H157.245L168.341 63.6929H147.467L150.967 49.4517H171.842L176.398 30.9155C176.826 29.1713 178.179 27.5695 179.911 26.7388L209.377 12.6519L200.323 49.4399V49.4517H212.186L216.747 30.9155C217.174 29.1712 218.527 27.5694 220.26 26.7388L249.726 12.6519L240.671 49.4399ZM321.681 63.6802H307.436L296.34 108.775H267.859L279.833 60.1196L293.147 49.4399H325.193L321.681 63.6802ZM359.989 49.4399L348.965 94.1909H355.705L366.729 49.4399H395.543L384.436 94.5347H399.945L396.444 108.775H327.58L319.522 98.0952L331.508 49.4399H359.989Z" fill="#456063"/>
</svg>
