<svg width="400" height="120" viewBox="0 0 400 120" fill="none" xmlns="http://www.w3.org/2000/svg">
<rect y="0.435547" width="117.972" height="117.972" rx="58.9862" fill="#D33C43"/>
<path d="M27.0286 35.137C27.2415 34.9744 28.784 36.4931 31.6057 38.3137C34.2318 40.1731 37.9107 42.2486 42.5852 43.3459C45.9444 44.135 49.2217 44.5614 52.3899 44.9729C58.5338 45.7714 63.8386 46.4608 67.553 49.5042C70.0083 51.5165 70.4174 54.1406 70.7796 56.4573C71.1798 59.016 71.5567 61.4326 74.6829 62.1545C74.9334 62.2124 75.1882 62.2271 75.4485 62.2043C76.8412 62.0823 78.3747 60.8911 80.1096 59.5461C80.5636 59.195 81.0297 58.8341 81.5052 58.4827C83.5225 57.1542 85.7556 56.0108 88.1829 56.3C92.749 56.844 92.7663 60.3733 92.9505 61.1809V61.178C93.7182 61.7812 95.4001 62.833 95.2796 63.1028C95.2168 63.1938 93.2319 63.092 92.3831 63.3088C82.4782 65.8368 85.9606 76.2095 77.7844 82.5295C70.9502 87.8131 59.2683 88.1404 57.6604 87.4221C57.1065 87.1745 59.3445 86.0057 58.8128 85.9065C52.3023 87.314 53.7307 101.013 51.6028 102.55C50.9126 102.972 49.1698 102.229 48.1712 101.385C47.6788 100.824 47.6017 100.331 47.9348 99.8782C48.3679 99.2916 50.2036 96.7185 50.2239 96.6887C50.254 96.6478 50.2644 96.596 50.2571 96.5461C50.2497 96.4962 50.2209 96.4523 50.18 96.4221C50.0949 96.3608 49.9759 96.3803 49.9143 96.4651L47.1917 100.261C47.1902 100.263 47.1874 100.266 47.1848 100.269C46.313 100.105 44.4368 98.5901 44.3137 96.8157C44.3453 96.8083 44.3767 96.7966 44.4055 96.7756L47.8538 94.1604C47.9541 94.084 47.9739 93.9397 47.8977 93.8391C47.8215 93.7386 47.6771 93.7192 47.5764 93.7952L44.1282 96.4104C44.0923 96.4381 44.066 96.4753 44.051 96.5149C43.0479 96.2497 41.8006 94.7473 41.8821 93.5608C41.891 93.5601 41.8986 93.5615 41.9075 93.5608C41.9379 93.5581 41.97 93.5498 41.9993 93.5334L45.7835 91.4387C45.8945 91.3769 45.9348 91.2383 45.8733 91.1272C45.8115 91.0161 45.6729 90.9757 45.5618 91.0374L41.7766 93.1321C41.7473 93.1469 41.7246 93.169 41.7053 93.1936C41.0369 92.8992 40.0292 91.5274 40.2161 90.5432C40.2299 90.545 40.2425 90.5473 40.2561 90.5461C40.2804 90.544 40.3059 90.5388 40.3294 90.5276L44.4788 88.678C44.5938 88.6265 44.6463 88.4903 44.595 88.3752C44.5435 88.2601 44.4074 88.2075 44.2923 88.259L40.1419 90.1077C40.1096 90.1228 40.083 90.1457 40.0608 90.1721C39.1121 89.637 38.0886 87.7202 38.6243 86.4631C38.6256 86.463 38.6275 86.4622 38.6282 86.4622C38.6312 86.4619 38.638 86.4622 38.638 86.4622L43.471 85.4602C43.5732 85.4388 43.6397 85.3384 43.6184 85.2346C43.6079 85.1849 43.5774 85.1419 43.5335 85.1135C43.4912 85.0866 43.4415 85.0767 43.3919 85.0872C43.3444 85.0971 39.5947 85.884 39.4348 85.9133C38.766 86.0347 38.4654 86.0046 38.1282 85.551C37.5064 84.4919 36.981 82.5314 37.4651 82.0872C39.3563 80.2805 48.4308 84.4095 52.6292 81.5178C55.3301 79.6572 57.9439 75.9502 61.7307 73.9485C53.7449 72.6792 47.5717 71.6697 45.7669 66.1018C41.3919 66.3404 39.5245 62.6525 39.3245 61.3323C35.1449 60.8207 34.7111 57.1701 34.9114 55.8147C32.5054 55.7488 30.2137 52.3601 30.8899 49.2932C29.5198 49.0433 27.9076 45.8679 28.6057 43.4524C25.8995 41.6046 26.2521 35.5531 27.0286 35.137ZM49.1878 66.634C49.0209 66.6026 48.8615 66.7098 48.8284 66.8752C48.7969 67.0405 48.9043 67.2014 49.0696 67.2346L63.0843 69.9817C63.1138 69.9868 63.1438 69.988 63.1712 69.9856C63.3034 69.9738 63.4173 69.8766 63.4436 69.7395C63.4751 69.5743 63.3677 69.4133 63.2024 69.3801L49.1878 66.634ZM59.5618 50.2786C59.1015 50.1885 58.6402 50.3191 58.2952 50.636C57.9503 50.9529 57.7805 51.402 57.8303 51.8684C57.9292 52.7878 58.6055 53.5312 59.51 53.719L60.6204 53.9504C60.5611 53.9909 60.5024 54.0361 60.4485 54.0852C60.1035 54.4022 59.9336 54.8511 59.9837 55.3176C60.0826 56.2367 60.7582 56.9794 61.6624 57.1672L62.763 57.3967C62.6993 57.4391 62.637 57.484 62.5803 57.5364C62.2354 57.8533 62.0656 58.3024 62.1155 58.7688C62.2143 59.688 62.8899 60.4315 63.7942 60.6194L64.9055 60.8499C64.8462 60.8903 64.7865 60.9339 64.7327 60.9846C64.3878 61.3015 64.219 61.7507 64.2688 62.217C64.3677 63.1363 65.0431 63.8798 65.9475 64.0676L67.0628 64.3C66.9962 64.3442 66.9329 64.3914 66.8733 64.4456C66.5285 64.7626 66.3594 65.2116 66.4094 65.678C66.5084 66.5972 67.1837 67.3398 68.0882 67.5276L72.5237 68.4485C72.5453 68.4526 72.5681 68.4532 72.5891 68.4514C72.688 68.4428 72.7724 68.3713 72.7942 68.2698L72.805 68.2668C72.8306 68.1422 72.7513 68.0225 72.6282 67.9963L68.1927 67.0754C67.4818 66.9275 66.9536 66.3445 66.8753 65.6243C66.8412 65.3038 66.9575 64.9965 67.1946 64.7795C67.4302 64.5627 67.7476 64.473 68.0628 64.5344L70.4036 64.9905C70.5282 65.0131 70.6478 64.9335 70.6721 64.8088C70.6931 64.7014 70.6337 64.5955 70.5354 64.5549C70.5194 64.5471 70.5018 64.5405 70.4846 64.5374L66.0491 63.6174C65.3384 63.4694 64.8111 62.8863 64.7327 62.1663C64.6985 61.8456 64.8154 61.5375 65.051 61.3206C65.2867 61.1037 65.6041 61.015 65.9192 61.0764L67.3235 61.3489L68.2376 61.5393C68.2594 61.5435 68.2827 61.5441 68.304 61.5422C68.3191 61.5409 68.334 61.5349 68.3489 61.5305C68.3502 61.5304 68.3515 61.5306 68.3528 61.5305C68.3618 61.5282 68.3699 61.5274 68.3772 61.5237C68.4516 61.4988 68.5117 61.4353 68.5276 61.3528C68.552 61.2279 68.4708 61.1076 68.346 61.0833L67.4065 60.8997L63.8938 60.1702C63.1831 60.0222 62.655 59.44 62.5764 58.72C62.5423 58.3994 62.6577 58.0913 62.8948 57.8743C63.1304 57.6574 63.4478 57.5679 63.763 57.6292L65.803 58.0266L66.1009 58.0872C66.1227 58.0914 66.1459 58.0929 66.1673 58.0911C66.2463 58.0841 66.3157 58.0351 66.3509 57.9631C66.3587 57.9487 66.3637 57.9329 66.3684 57.9172C66.3697 57.9141 66.3726 57.9115 66.3723 57.9084V57.9055C66.3722 57.9041 66.3714 57.9026 66.3714 57.9026C66.3956 57.7778 66.3145 57.6574 66.1897 57.6331L65.886 57.5745L61.7571 56.717C61.0463 56.5691 60.5182 55.9869 60.4397 55.2668C60.4055 54.9462 60.521 54.6382 60.7581 54.4211C60.9936 54.2043 61.3112 54.1148 61.6262 54.176L63.0354 54.4504L63.9446 54.6389C63.9664 54.6431 63.9897 54.6447 64.011 54.6428C64.0262 54.6415 64.041 54.6355 64.0559 54.6311C64.0573 54.631 64.0602 54.6312 64.0618 54.6311C64.0691 54.629 64.077 54.6278 64.0843 54.6243C64.1586 54.5994 64.2199 54.5374 64.2356 54.4534C64.26 54.3286 64.1787 54.2083 64.054 54.1838L63.1204 54.0012L59.6028 53.2708C58.8935 53.1227 58.3647 52.5398 58.2864 51.8196C58.2523 51.499 58.3686 51.1909 58.6057 50.9739C58.8413 50.7572 59.1589 50.6684 59.4739 50.7297L61.8147 51.1858C61.9393 51.2084 62.0589 51.1289 62.0833 51.0042C62.1076 50.8794 62.0272 50.7591 61.9026 50.7346L59.5618 50.2786ZM44.4973 61.4299C44.3333 61.3953 44.1706 61.5017 44.136 61.6672C44.1014 61.8328 44.2077 61.9939 44.3733 62.0286L60.885 65.4583C60.916 65.4632 60.9451 65.4656 60.9739 65.4631C61.1048 65.4517 61.2184 65.3568 61.2464 65.2209C61.2806 65.0556 61.1744 64.8952 61.0091 64.8606L44.4973 61.4299ZM34.6311 17.092C35.2101 17.1553 35.2745 19.0595 40.3323 23.8987C47.9524 31.1911 66.5387 35.9461 71.6204 43.1477C75.5459 48.7097 72.7714 56.7554 77.0774 60.968C76.2397 61.4554 75.4828 61.7135 74.8206 61.5598C72.0951 60.9301 71.7802 58.9147 71.3821 56.3635C71.0044 53.9393 70.5751 51.1907 67.9397 49.0315C64.0914 45.8774 58.7048 45.1767 52.468 44.3665C49.3155 43.9567 46.0542 43.5336 42.7249 42.7512C41.5347 42.4719 40.4105 42.1266 39.3518 41.7375C37.6685 40.1501 37.3552 37.2346 38.1331 36.0989C36.8658 35.5517 34.291 32.5603 35.6028 30.3948C34.4181 29.9491 33.3926 26.4998 34.4329 24.6633C33.0117 23.0742 33.828 17.6945 34.6311 17.092ZM40.2552 56.5559C40.0895 56.5213 39.9279 56.6287 39.8948 56.7942C39.8619 56.9596 39.9686 57.1205 40.1341 57.1536H40.1321L58.9544 60.9641C58.9838 60.9692 59.0135 60.9715 59.0423 60.969C59.1747 60.9574 59.2877 60.8617 59.3157 60.7258C59.3488 60.5604 59.2428 60.3996 59.0774 60.3665L40.2552 56.5559ZM36.4759 51.5344C36.3105 51.5015 36.1495 51.6093 36.1165 51.7747C36.0836 51.94 36.1913 52.1009 36.3567 52.134L56.0911 56.0764C56.1192 56.0816 56.1491 56.0838 56.178 56.0813C56.3103 56.0696 56.4225 55.972 56.4505 55.8362C56.4834 55.6709 56.3764 55.51 56.2112 55.4768L36.4759 51.5344ZM32.4505 46.0598C32.2851 46.0254 32.1249 46.1309 32.0901 46.2961C32.0555 46.4616 32.1611 46.6227 32.3264 46.6575L32.3255 46.6594L53.5823 51.052C53.6134 51.0569 53.6432 51.0584 53.6721 51.0559C53.8045 51.0442 53.9176 50.9486 53.9456 50.8127C53.98 50.6473 53.8737 50.4861 53.7083 50.4514L32.4505 46.0598ZM39.0335 28.3733C38.8867 28.2913 38.6997 28.3448 38.6175 28.4915V28.4895C38.5352 28.6363 38.5888 28.8233 38.7356 28.9055L64.6282 43.4055C64.6831 43.4375 64.7446 43.4488 64.804 43.4436C64.9013 43.435 64.9935 43.3812 65.0452 43.2893C65.1273 43.1426 65.0737 42.9555 64.927 42.8733L39.0335 28.3733ZM40.344 32.8323C40.1959 32.752 40.0105 32.8073 39.93 32.9553C39.8497 33.1034 39.904 33.2888 40.052 33.3694L58.0764 43.1663C58.1311 43.1951 58.1905 43.2065 58.2483 43.2014C58.3472 43.1927 58.4404 43.1355 58.4905 43.0422V43.0432C58.5709 42.8951 58.5165 42.7097 58.3684 42.6292L40.344 32.8323ZM41.3089 37.0198C41.1621 36.9377 40.9751 36.9912 40.8928 37.1379C40.8107 37.2846 40.8635 37.4716 41.01 37.554L49.8343 42.4924C49.8891 42.5244 49.9498 42.5356 50.0091 42.5305C50.1064 42.522 50.1985 42.467 50.2503 42.3752C50.3324 42.2286 50.2795 42.0416 50.1331 41.9592L41.3089 37.0198Z" fill="#EAF2F2"/>
<path d="M240.671 49.2051H265.593V49.2168L273.639 59.8975L261.664 108.553H233.184L244.279 63.457H237.158L226.062 108.553H197.582L208.681 63.457H196.822L185.727 108.553H157.245L168.341 63.457H147.467L150.967 49.2168H171.842L176.398 30.6807C176.826 28.9363 178.179 27.3336 179.911 26.5029L209.377 12.417L200.323 49.2051V49.2168H212.186L216.747 30.6807C217.174 28.9363 218.527 27.3336 220.26 26.5029L249.726 12.417L240.671 49.2051ZM321.681 63.4453H307.436L296.34 108.54H267.859L279.833 59.8848L293.147 49.2051H325.193L321.681 63.4453ZM359.989 49.2051L348.965 93.9551H355.705L366.729 49.2051H395.543L384.436 94.2998H399.945L396.444 108.54H327.58L319.522 97.8594L331.508 49.2051H359.989Z" fill="#EAF2F2"/>
</svg>
