<svg xmlns="http://www.w3.org/2000/svg" width="128" height="128" viewBox="0 0 128 128" role="img" aria-labelledby="title"><title id="title">ThruUSD — Flight</title><circle cx="64" cy="64" r="64" fill="#d33c43"/><g transform="translate(18 4)"><g fill="none" stroke="#fff" stroke-linecap="round" stroke-linejoin="round"><path d="M74 48c-4-8-21-8-21 3 0 12 22 6 22 19 0 11-19 13-24 5" stroke-width="6"/><path d="M63 36v53" stroke-width="4"/></g></g><g fill="#fff"><path d="m15 35 46 17-7 10C35 58 22 48 15 35ZM21 58l31 10-5 9C35 74 26 67 21 58ZM29 79l17 4-3 8c-6-2-11-6-14-12Z"/></g></svg>
